<?xml version="1.0" encoding="UTF-8"?>
<svg width="100px" height="115px" viewBox="0 0 100 115" version="1.1" xmlns="http://www.w3.org/2000/svg" xmlns:xlink="http://www.w3.org/1999/xlink">
    <!-- Generator: Sketch 46.2 (44496) - http://www.bohemiancoding.com/sketch -->
    <title>Logo</title>
    <desc>Created with Sketch.</desc>
    <defs></defs>
    <g id="UI" stroke="none" stroke-width="1" fill="none" fill-rule="evenodd">
        <g id="Home" transform="translate(-138.000000, -102.000000)" fill-rule="nonzero">
            <g id="Hero" transform="translate(122.000000, 102.000000)">
                <g id="Logo" transform="translate(16.000000, 0.000000)">
                    <path d="M38.225521,7.19672 L45.8951854,7.51517485 C45.8951854,7.51517485 48.9941128,7.6609084 49.7128616,11.7144611 C50.4316104,15.7680137 55.0944487,43.8766032 55.0944487,43.8766032 L80.0321451,46.6455412 C87.382165,46.6455412 92.7745874,52.5558475 92.7745874,59.8443258 L92.7745874,96.1499795 C92.7745874,103.438458 87.9456063,107.088994 80.5991982,107.088994 L47.6198215,107.088994 C40.2698016,107.088994 10.8354101,86.7294731 9.0295083,81.3553223 C8.37757782,79.4122079 7.96041453,78.264331 7.69494698,76.8771633 C7.22360666,74.4248809 7.22360666,73.2446188 7.22360666,73.2446188 L11.4060749,73.9391023 L34.3121319,77.0426879 C34.3121319,77.0426879 35.3740021,14.8396369 35.3740021,11.0901458 C35.3740021,7.34065456 38.225521,7.19672 38.225521,7.19672 L38.225521,7.19672 Z M38.225521,0 C38.0738252,0 37.9221295,0.00539757521 37.7704337,0.0143934929 C33.1057897,0.307659819 28.1485895,4.30183952 28.1485895,11.1261293 C28.1485895,13.7097519 27.6050131,46.5070044 27.2257737,68.9139925 L12.3559793,66.9492879 L8.17531683,66.3933412 C7.85747808,66.3519601 7.53963946,66.3303699 7.22360666,66.3303699 C5.48271742,66.3303699 3.78878163,66.9600829 2.46324985,68.1151565 C0.897533139,69.4825333 0,71.4526355 0,73.5270901 C0,73.8851269 0.0288944094,75.8210446 0.599559395,78.7950891 C0.975186964,80.752597 1.50612206,82.7622811 2.17972337,84.7647685 C3.61541518,89.037821 10.3008633,94.3094184 22.0500596,102.661212 C33.9563694,111.122756 42.5578791,114.285714 47.6198216,114.285714 L80.6010041,114.285714 C91.9203959,114.285714 100,107.394855 100,96.1499797 L100,59.8443259 C100,48.7415861 91.5899159,39.6845138 80.4691733,39.4524195 L61.0467006,37.3149936 C59.6507385,28.9218188 57.2163831,13.4452723 56.6872539,10.4622317 C55.5025824,3.78547461 50.4370282,0.528958804 46.1660707,0.327450641 L38.4927945,0.00719656196 C38.3934698,0.00179910974 38.3248455,0 38.225521,0 L38.225521,0 Z" id="Shape" fill="#FFFFFF"></path>
                    <path d="M83.9751304,95.2380952 C83.0133774,95.2380952 82.2359749,94.4321913 82.2359749,93.4351782 L82.2359749,65.2231311 C82.2359749,60.9754584 79.7002862,57.7734776 75.6132707,57.7734776 L68.1088146,57.0487049 C67.1540182,56.958559 66.5870535,56.0805384 66.6757504,55.088934 C66.7627082,54.0973296 67.6583733,52.4729013 68.6340395,52.5594412 L76.3193677,52.3809524 C76.322846,52.3809524 76.3263243,52.3809524 76.3298026,52.3809524 C82.1385821,52.3809524 85.7142857,59.0283078 85.7142857,65.223131 L85.7142857,93.4351781 C85.714286,94.4321912 84.9334051,95.2380952 83.9751304,95.2380952 Z" id="Shape" fill="#FDFDFD"></path>
                    <path d="M62.5776922,54.7619048 C62.5178299,54.7619048 62.4545469,54.7576375 62.3946847,54.7491028 L58.672961,54.2540927 C57.7339783,54.1282065 57.0532586,53.0784438 57.152459,51.9049286 C57.2533697,50.733547 58.1017038,49.8971507 59.0372658,50.010235 L62.7589895,50.5052452 C63.6979722,50.6311314 64.3752711,51.6808941 64.2760708,52.8544092 C64.1802911,53.9489787 63.4397091,54.7619048 62.5776922,54.7619048 Z" id="Shape" fill="#EFDFDF"></path>
                </g>
            </g>
        </g>
    </g>
</svg>