<svg width="19px"  height="19px" viewBox="0 0 19 19" version="1.1"
   xmlns="http://www.w3.org/2000/svg" xmlns:xlink="http://www.w3.org/1999/xlink">

    <defs></defs>
    <g id="Page-1" stroke="none" stroke-width="1" fill="none" fill-rule="evenodd">
        <g id="/dish/berry-pie" transform="translate(-319.000000, -619.000000)" fill-rule="nonzero" fill="#F86E67">
            <g id="cart-button" transform="translate(304.000000, 604.000000)">
                <g id="shopping-cart" transform="translate(15.000000, 15.000000)">
                    <path d="M19.006,2.97 C18.815,2.751 18.54,2.625 18.25,2.625 L4.431,2.625 L4.236,1.461 C4.156,0.979 3.739,0.625 3.25,0.625 L1,0.625 C0.447,0.625 0,1.072 0,1.625 C0,2.178 0.447,2.625 1,2.625 L2.403,2.625 L4.263,13.789 C4.271,13.834 4.294,13.871 4.308,13.913 C4.324,13.966 4.337,14.016 4.362,14.064 C4.394,14.13 4.437,14.186 4.482,14.243 C4.513,14.282 4.541,14.321 4.577,14.355 C4.635,14.409 4.702,14.447 4.77,14.485 C4.808,14.506 4.841,14.534 4.882,14.55 C4.998,14.597 5.12,14.625 5.249,14.625 C5.25,14.625 16.25,14.625 16.25,14.625 C16.803,14.625 17.25,14.178 17.25,13.625 C17.25,13.072 16.803,12.625 16.25,12.625 L6.097,12.625 L5.931,11.625 L17.25,11.625 C17.748,11.625 18.17,11.259 18.24,10.767 L19.24,3.767 C19.281,3.479 19.195,3.188 19.006,2.97 Z M17.097,4.625 L16.812,6.625 L13.25,6.625 L13.25,4.625 L17.097,4.625 Z M12.25,4.625 L12.25,6.625 L9.25,6.625 L9.25,4.625 L12.25,4.625 Z M12.25,7.625 L12.25,9.625 L9.25,9.625 L9.25,7.625 L12.25,7.625 Z M8.25,4.625 L8.25,6.625 L5.25,6.625 C5.197,6.625 5.149,6.64 5.102,6.655 L4.764,4.625 L8.25,4.625 Z M5.264,7.625 L8.25,7.625 L8.25,9.625 L5.597,9.625 L5.264,7.625 Z M13.25,9.625 L13.25,7.625 L16.668,7.625 L16.383,9.625 L13.25,9.625 Z M6.75,18.625 C5.92157288,18.625 5.25,17.9534271 5.25,17.125 C5.25,16.2965729 5.92157288,15.625 6.75,15.625 C7.57842712,15.625 8.25,16.2965729 8.25,17.125 C8.25,17.9534271 7.57842712,18.625 6.75,18.625 Z M15.75,18.625 C14.9215729,18.625 14.25,17.9534271 14.25,17.125 C14.25,16.2965729 14.9215729,15.625 15.75,15.625 C16.5784271,15.625 17.25,16.2965729 17.25,17.125 C17.25,17.9534271 16.5784271,18.625 15.75,18.625 Z" id="Shape"></path>
                </g>
            </g>
        </g>
    </g>
</svg>
