<?xml version="1.0" encoding="UTF-8"?>
<svg width="123px" height="142px" viewBox="0 0 123 142" version="1.1" xmlns="http://www.w3.org/2000/svg" xmlns:xlink="http://www.w3.org/1999/xlink">
    <!-- Generator: Sketch 46.2 (44496) - http://www.bohemiancoding.com/sketch -->
    <title>logo</title>
    <desc>Created with Sketch.</desc>
    <defs>
        <path d="M108.840964,45.1068314 C104.834415,40.8253667 99.3703681,38.709484 92.448039,38.7591833 C88.613345,35.7717317 84.1819976,34.2786598 79.1550433,34.2786598 C78.0600891,34.2786598 76.9897229,34.3529472 75.9434216,34.5023067 C73.1055911,32.8596137 70.1427275,31.9380839 67.0571852,31.7395482 L67.0571852,19.1182779 C67.0571852,13.8906953 65.1673036,9.39735463 61.3817857,5.63825583 C57.5978372,1.87994176 53.0916793,0 47.8643583,0 C42.7356512,0 38.2799773,1.89197423 34.4957673,5.6756611 C30.7120804,9.46039428 28.8201062,13.9411794 28.8201062,19.1190626 L28.8201062,47.0500744 C25.8331777,45.9553817 22.6466673,45.407643 19.2608365,45.407643 C13.1870577,45.407643 8.48184104,47.4369442 5.14649425,51.4937157 C1.8106243,55.5517951 0.143604846,60.6922731 0.143604846,66.9154114 C0.143604846,68.8068624 0.578604588,70.5379678 1.4504351,72.1053271 C2.32226561,73.6726864 3.55402375,75.043341 5.14754055,76.2133674 C6.74027262,77.3823474 8.30867818,78.3901971 9.85249567,79.237178 C11.3960516,80.0849435 13.188104,81.0051655 15.2296993,82.0004595 C17.2707715,82.9960152 18.8135427,83.818408 19.8595823,84.4647606 C22.5974911,86.2058058 25.8088512,88.6970491 29.4931395,91.9314278 C29.6427606,92.0323959 30.0659894,92.3815989 30.762826,92.9777291 C31.4604474,93.5756902 31.9958921,94.0483568 32.3686369,94.3975598 C32.7419048,94.7465013 33.2773495,95.2568347 33.973663,95.9282986 C34.6704996,96.5995008 35.2305323,97.1985083 35.6537612,97.7206126 C36.0762053,98.2424553 36.524807,98.8045807 36.9974736,99.4017571 C37.4706633,99.9978873 37.8188201,100.583293 38.0435132,101.156143 C38.2682064,101.728993 38.3801607,102.264437 38.3801607,102.762215 L38.3801607,124.27103 C38.3801607,126.910063 39.3134614,129.161965 41.1803244,131.029351 C43.0477105,132.896737 45.3006587,133.8303 47.939692,133.8303 L95.7336865,133.8303 C98.3724583,133.8303 100.626453,132.896737 102.493839,131.029351 C104.359394,129.163011 105.294787,126.910063 105.294787,124.27103 L105.294787,102.762215 C105.294787,99.8244628 106.763794,94.2725268 109.701808,86.1087614 C113.137338,76.6978048 114.853272,68.6810447 114.853272,62.0613583 C114.851703,55.0401538 112.851175,49.3890808 108.840964,45.1068314 Z M94.3169946,122.850676 C93.3698304,123.796009 92.2492418,124.270507 90.9547056,124.270507 C89.6601694,124.270507 88.5411502,123.795224 87.5942476,122.850676 C86.6489144,121.905604 86.1762478,120.784754 86.1762478,119.490218 C86.1762478,118.195682 86.6489144,117.075355 87.5942476,116.12976 C88.5411502,115.183642 89.6601694,114.709929 90.9547056,114.709929 C92.2492418,114.709929 93.3695689,115.183642 94.3169946,116.12976 C95.2620662,117.075093 95.7349944,118.195682 95.7349944,119.490218 C95.7349944,120.784754 95.2615431,121.905604 94.3169946,122.850676 Z M102.905035,75.8393147 C101.311518,80.7438518 99.7182632,85.5604995 98.125008,90.2916122 C96.5317528,95.0206322 95.7349944,99.1786334 95.7349944,102.761954 L95.7349944,105.151182 L47.9399536,105.151182 L47.9399536,102.761954 C47.9399536,99.2278095 46.5211691,95.7431032 43.6836001,92.3073115 C42.4385016,90.8142397 39.7994683,88.2981467 35.7672849,84.7640027 C31.7351015,81.1796362 28.1253622,78.3904587 24.9391133,76.3993474 C23.8930736,75.7511638 22.2754919,74.8312034 20.0847987,73.6352811 C13.1640391,70.3498952 9.70365932,68.110549 9.70365932,66.9146266 C9.70365932,63.3799595 10.4627509,60.5044621 11.9817187,58.2889192 C13.4993787,56.0733763 15.9267975,54.966128 19.2624059,54.966128 C21.4036614,54.966128 23.5072501,55.339396 25.5731719,56.0864551 C27.6390937,56.8324678 29.3325322,57.6538143 30.651395,58.5502329 C31.9702577,59.4466515 33.339866,60.267998 34.7589121,61.0150571 C36.1790044,61.7618546 37.3861745,62.1353841 38.3814685,62.1353841 L38.3814685,19.1190626 C38.3814685,16.6304351 39.3404036,14.4151538 41.2572275,12.472434 C43.1737898,10.5312836 45.4013652,9.56057762 47.9412614,9.56057762 C50.5303339,9.56057762 52.7704648,10.5061724 54.6629622,12.3981466 C56.5549364,14.2898592 57.5005312,16.5305134 57.5005312,19.1198474 L57.5005312,43.8389758 C58.3477736,43.0913936 59.5293093,42.4693675 61.0474924,41.9715897 C62.5659371,41.4738119 63.9478395,41.2245306 65.1921532,41.2245306 C68.6279449,41.2245306 71.5889774,42.5433933 74.0776049,45.1824266 C75.6711217,44.286008 77.3896715,43.8379295 79.2319465,43.8379295 C81.0739598,43.8379295 82.9036791,44.2739756 84.7208428,45.1447598 C86.5369602,46.0165903 87.8437904,47.1991723 88.6405488,48.6922442 C90.1336207,48.4437476 91.527294,48.3189762 92.8218302,48.3189762 C101.134955,48.3189762 105.294003,53.0234082 105.294003,62.4330568 C105.296095,66.466025 104.498552,70.9355623 102.905035,75.8393147 Z" id="path-1"></path>
        <filter x="-7.0%" y="-3.0%" width="113.9%" height="112.0%" filterUnits="objectBoundingBox" id="filter-2">
            <feOffset dx="0" dy="4" in="SourceAlpha" result="shadowOffsetOuter1"></feOffset>
            <feGaussianBlur stdDeviation="2" in="shadowOffsetOuter1" result="shadowBlurOuter1"></feGaussianBlur>
            <feColorMatrix values="0 0 0 0 0   0 0 0 0 0   0 0 0 0 0  0 0 0 0.5 0" type="matrix" in="shadowBlurOuter1"></feColorMatrix>
        </filter>
    </defs>
    <g id="Page-1" stroke="none" stroke-width="1" fill="none" fill-rule="evenodd">
        <g id="Home" transform="translate(-119.000000, -74.000000)" fill-rule="nonzero">
            <g id="Hero" transform="translate(40.000000, 74.000000)">
                <g id="logo" transform="translate(83.000000, 0.000000)">
                    <g id="Shape">
                        <use fill="black" fill-opacity="1" filter="url(#filter-2)" xlink:href="#path-1"></use>
                        <use fill="#FFFFFF" fill-rule="evenodd" xlink:href="#path-1"></use>
                    </g>
                </g>
            </g>
        </g>
    </g>
</svg>