<svg width="20px" height="20px" viewBox="0 0 20 20" version="1.1" xmlns="http://www.w3.org/2000/svg" xmlns:xlink="http://www.w3.org/1999/xlink">
    <g id="Page-1" stroke="none" stroke-width="1" fill="none" fill-rule="evenodd">
        <g id="/profile" transform="translate(-320.000000, -110.000000)" fill="#FFFFFF">
            <g id="Profile" transform="translate(20.000000, 80.000000)">
                <g id="edit" transform="translate(300.000000, 30.000000)">
                    <g id="Capa_1">
                        <path d="M18.7921429,0.939642857 C17.5385714,-0.313214286 15.4996429,-0.313214286 14.2460714,0.939642857 L1.36678571,13.8189286 C1.36071429,13.825 1.35714286,13.8325 1.35178571,13.8389286 C1.34428571,13.8475 1.33785714,13.8567857 1.33107143,13.8660714 C1.31214286,13.8925 1.2975,13.9207143 1.28642857,13.9514286 C1.28321429,13.9607143 1.27857143,13.9689286 1.27607143,13.9782143 C1.275,13.9817857 1.27285714,13.9853571 1.27178571,13.9889286 L0.00928571429,19.2925 C0.00357142857,19.3164286 0.00214285714,19.3407143 0.00142857143,19.3646429 C0.00142857143,19.3692857 0,19.3735714 0,19.3782143 C0.000357142857,19.4189286 0.00928571429,19.4585714 0.0232142857,19.4967857 C0.0264285714,19.5057143 0.03,19.5135714 0.0339285714,19.5221429 C0.0514285714,19.5603571 0.0732142857,19.5971429 0.103928571,19.6278571 C0.137857143,19.6617857 0.177857143,19.6878571 0.221071429,19.7057143 C0.264285714,19.7235714 0.310357143,19.7325 0.356428571,19.7325 C0.383928571,19.7325 0.411785714,19.7292857 0.438928571,19.7228571 L5.7425,18.4603571 C5.75214286,18.4582143 5.76071429,18.4528571 5.77,18.4496429 C5.78214286,18.4457143 5.79357143,18.4410714 5.80535714,18.4357143 C5.83107143,18.4239286 5.855,18.4092857 5.87714286,18.3917857 C5.88571429,18.385 5.89464286,18.38 5.90285714,18.3725 C5.90571429,18.3696429 5.90928571,18.3682143 5.91214286,18.3653571 L18.7917857,5.48571429 C20.0453571,4.23214286 20.0453571,2.19285714 18.7921429,0.939642857 Z M18.2871429,1.44464286 C19.1757143,2.33357143 19.2514286,3.72928571 18.5192857,4.70785714 L15.0239286,1.2125 C16.0028571,0.480357143 17.3985714,0.556071429 18.2871429,1.44464286 Z M16.5192857,6.74821429 L12.9835714,3.2125 L13.4885714,2.7075 L17.0242857,6.24321429 L16.5192857,6.74821429 Z M1.77178571,17.96 C1.63214286,17.8203571 1.40642857,17.8203571 1.26678571,17.96 L0.996428571,18.2303571 L1.90857143,14.3989286 L3.48785714,14.2235714 L3.28464286,16.0528571 C3.28321429,16.0664286 3.28821429,16.0789286 3.28821429,16.0921429 C3.28821429,16.1057143 3.28321429,16.1178571 3.28464286,16.1314286 C3.28607143,16.1432143 3.29214286,16.1528571 3.29464286,16.1642857 C3.29892857,16.185 3.305,16.2039286 3.3125,16.2232143 C3.32178571,16.2464286 3.33285714,16.2675 3.34642857,16.2878571 C3.3575,16.3042857 3.36857143,16.3189286 3.38214286,16.3332143 C3.39928571,16.3514286 3.41785714,16.3667857 3.43821429,16.3810714 C3.45428571,16.3921429 3.46964286,16.4025 3.4875,16.4110714 C3.51107143,16.4221429 3.53571429,16.4285714 3.56142857,16.4346429 C3.575,16.4378571 3.58607143,16.4453571 3.6,16.4471429 C3.61285714,16.4485714 3.62571429,16.4492857 3.63892857,16.4492857 L3.63928571,16.4492857 L3.63964286,16.4492857 L3.64,16.4492857 L3.64035714,16.4492857 C3.65321429,16.4492857 3.66642857,16.4485714 3.67928571,16.4471429 L5.50857143,16.2439286 L5.33321429,17.8232143 L1.50142857,18.7353571 L1.77178571,18.465 C1.91107143,18.3257143 1.91107143,18.0996429 1.77178571,17.96 Z M6.25392857,16.0032143 L14.2460714,8.01071429 C14.3857143,7.87107143 14.3857143,7.64535714 14.2460714,7.50571429 C14.1064286,7.36607143 13.8807143,7.36607143 13.7410714,7.50571429 L5.74892857,15.4982143 L4.04428571,15.6875 L4.23357143,13.9828571 L12.2264286,5.99071429 C12.3660714,5.85107143 12.3660714,5.62535714 12.2264286,5.48571429 C12.0867857,5.34607143 11.8610714,5.34607143 11.7214286,5.48571429 L3.72857143,13.4778571 L2.59178571,13.6042857 L12.4785714,3.7175 L16.0142857,7.25321429 L6.1275,17.14 L6.25392857,16.0032143 Z M17.5292857,5.73821429 L13.9935714,2.2025 L14.4989286,1.69714286 L18.0346429,5.23285714 L17.5292857,5.73821429 Z" id="Shape"></path>
                    </g>
                </g>
            </g>
        </g>
    </g>
</svg>
